<?xml version="1.0" standalone="no"?>
<!DOCTYPE svg PUBLIC "-//W3C//DTD SVG 20010904//EN"
 "http://www.w3.org/TR/2001/REC-SVG-20010904/DTD/svg10.dtd">
<svg version="1.0" xmlns="http://www.w3.org/2000/svg"
 width="413.000000pt" height="192.000000pt" viewBox="0 0 413.000000 192.000000"
 preserveAspectRatio="xMidYMid meet">

<g transform="translate(0.000000,192.000000) scale(0.100000,-0.100000)"
fill="#000000" stroke="none">
<path d="M802 1318 c-70 -131 -136 -267 -118 -244 10 12 23 17 35 13 18 -4 28
10 73 104 35 75 56 109 66 107 8 -2 49 -65 91 -140 l76 -137 3 50 c3 46 -2 58
-79 187 -45 75 -85 141 -89 145 -4 5 -30 -33 -58 -85z"/>
<path d="M1177 884 c-4 -4 -4 -17 -1 -29 4 -15 0 -24 -10 -28 -9 -4 -16 -11
-16 -17 0 -6 4 -9 8 -6 5 3 9 -1 9 -9 0 -8 -4 -12 -9 -9 -4 3 -8 -2 -8 -10 0
-13 5 -13 45 0 l45 16 -16 36 c-9 21 -18 43 -21 50 -6 13 -16 16 -26 6z"/>
<path d="M1010 760 c-9 -6 -10 -10 -3 -10 6 0 15 5 18 10 8 12 4 12 -15 0z"/>
</g>
</svg>
